<svg viewBox="0 0 200 200" xmlns="http://www.w3.org/2000/svg">
  <path fill="#F95700" d="M26.6,-49.6C37.8,-39.6,52.4,-39.2,63.1,-32.5C73.8,-25.8,80.6,-12.9,80.7,0.1C80.9,13.1,74.5,26.2,67.3,38.9C60.1,51.6,52.1,64,40.7,68.2C29.4,72.5,14.7,68.7,4.9,60.2C-4.8,51.6,-9.7,38.4,-17.8,32.3C-26,26.2,-37.4,27.2,-43.9,23C-50.5,18.8,-52.1,9.4,-50.9,0.7C-49.8,-8.1,-45.9,-16.1,-44.9,-30C-43.9,-43.8,-45.9,-63.4,-38.9,-75.8C-31.9,-88.2,-16,-93.4,-4.1,-86.3C7.7,-79.2,15.4,-59.6,26.6,-49.6Z" transform="translate(100 100)" />
</svg>