<svg fill="#ffffff" xmlns="http://www.w3.org/2000/svg"  viewBox="0 0 50 50" width="50px" height="50px"><path d="M 16.78125 0 C 16.261719 0 16.03125 0.132813 15.625 0.28125 C 15.21875 0.429688 14.75 0.636719 14.1875 0.875 C 13.0625 1.347656 11.65625 1.972656 10.1875 2.59375 C 8.71875 3.214844 7.199219 3.824219 5.875 4.28125 C 4.550781 4.738281 3.378906 5 2.875 5 L 1 5 C 0.640625 4.996094 0.304688 5.183594 0.121094 5.496094 C -0.0585938 5.808594 -0.0585938 6.191406 0.121094 6.503906 C 0.304688 6.816406 0.640625 7.003906 1 7 L 2.875 7 C 3.917969 7 5.097656 6.636719 6.5 6.15625 C 7.902344 5.675781 9.484375 5.035156 10.96875 4.40625 C 12.453125 3.777344 13.871094 3.152344 14.96875 2.6875 C 15.519531 2.457031 15.964844 2.28125 16.3125 2.15625 C 16.484375 2.09375 16.675781 2.054688 16.78125 2.03125 C 16.871094 2.054688 17.027344 2.097656 17.1875 2.15625 C 17.507813 2.273438 17.941406 2.441406 18.4375 2.65625 C 19.429688 3.089844 20.648438 3.675781 21.875 4.28125 C 23.101563 4.886719 24.332031 5.503906 25.25 6 C 25.710938 6.25 26.101563 6.492188 26.375 6.65625 C 26.511719 6.738281 26.621094 6.796875 26.6875 6.84375 C 26.617188 6.769531 26.777344 6.96875 26.9375 7.21875 C 27.109375 7.480469 27.332031 7.832031 27.59375 8.25 C 28.117188 9.089844 28.761719 10.152344 29.40625 11.21875 C 30.6875 13.335938 31.925781 15.382813 31.9375 15.40625 C 31.9375 15.40625 31.9375 15.4375 31.9375 15.4375 C 31.988281 15.542969 32.015625 15.835938 31.9375 16.09375 C 31.855469 16.363281 31.742188 16.527344 31.5625 16.59375 C 31.539063 16.601563 31.207031 16.625 30.90625 16.53125 C 30.605469 16.4375 30.328125 16.246094 30.28125 16.1875 C 30.28125 16.1875 28.933594 14.503906 27.5625 12.8125 C 26.878906 11.96875 26.183594 11.121094 25.65625 10.46875 C 25.394531 10.140625 25.191406 9.855469 25.03125 9.65625 C 24.871094 9.457031 24.691406 9.246094 24.78125 9.375 C 24.625 9.15625 24.558594 9.132813 24.5 9.09375 C 24.441406 9.054688 24.386719 9.023438 24.34375 9 C 24.257813 8.957031 24.183594 8.914063 24.09375 8.875 C 23.914063 8.796875 23.699219 8.722656 23.4375 8.625 C 22.914063 8.425781 22.246094 8.171875 21.5625 7.9375 C 20.878906 7.703125 20.179688 7.484375 19.625 7.3125 C 19.347656 7.226563 19.109375 7.148438 18.90625 7.09375 C 18.703125 7.039063 18.671875 7 18.28125 7 C 18.199219 7 17.144531 6.925781 16.125 7.3125 C 15.105469 7.699219 14 8.808594 14 10.5 C 14 11.976563 15.046875 12.984375 15.96875 13.4375 C 16.890625 13.890625 17.605469 14 18.125 14 C 18.527344 14 19.269531 13.925781 20.25 13.90625 C 21.230469 13.886719 22.351563 13.929688 23.03125 14.0625 C 24.398438 14.332031 26.445313 15.46875 27.59375 16.28125 C 28.460938 16.890625 28.582031 17.621094 28.40625 18.125 C 28.230469 18.628906 27.757813 19.097656 26.46875 18.96875 C 26.210938 18.941406 24.878906 18.703125 23.5625 18.46875 C 22.246094 18.234375 20.925781 18 20.03125 18 C 19.109375 18 17.773438 18.25 16.15625 18.5 C 14.539063 18.75 12.746094 19 11.46875 19 C 9.378906 19 8.335938 18.214844 6.9375 17.21875 C 5.539063 16.222656 3.800781 15.03125 1 15.03125 C 0.640625 15.027344 0.304688 15.214844 0.121094 15.527344 C -0.0585938 15.839844 -0.0585938 16.222656 0.121094 16.535156 C 0.304688 16.847656 0.640625 17.035156 1 17.03125 C 3.28125 17.03125 4.402344 17.859375 5.78125 18.84375 C 7.160156 19.828125 8.824219 21 11.46875 21 C 12.984375 21 14.796875 20.75 16.4375 20.5 C 18.078125 20.25 19.605469 20 20.03125 20 C 20.457031 20 21.765625 20.191406 23 20.40625 L 23 23 C 22.996094 23.386719 23.214844 23.738281 23.5625 23.90625 L 25.5625 24.90625 C 25.699219 24.96875 25.847656 25.003906 26 25 L 26 32 C 25.992188 32.265625 26.09375 32.527344 26.28125 32.71875 L 27.28125 33.71875 C 27.472656 33.90625 27.734375 34.007813 28 34 L 30 34 C 30.265625 34.007813 30.527344 33.90625 30.71875 33.71875 L 31.71875 32.71875 C 31.90625 32.527344 32.007813 32.265625 32 32 L 32 25 C 32.152344 25.003906 32.300781 24.96875 32.4375 24.90625 L 34.4375 23.90625 C 34.785156 23.738281 35.003906 23.386719 35 23 L 35 18 C 35.007813 17.734375 34.90625 17.472656 34.71875 17.28125 L 33.90625 16.46875 C 34.070313 15.785156 34.023438 15.085938 33.65625 14.4375 C 33.65625 14.425781 33.65625 14.417969 33.65625 14.40625 C 33.65625 14.40625 32.417969 12.324219 31.125 10.1875 C 30.480469 9.117188 29.8125 8.039063 29.28125 7.1875 C 29.015625 6.761719 28.808594 6.410156 28.625 6.125 C 28.441406 5.839844 28.375 5.710938 28.15625 5.46875 C 27.976563 5.269531 27.898438 5.265625 27.78125 5.1875 C 27.664063 5.109375 27.53125 5 27.375 4.90625 C 27.0625 4.722656 26.660156 4.507813 26.1875 4.25 C 25.238281 3.738281 24.027344 3.117188 22.78125 2.5 C 21.535156 1.882813 20.257813 1.265625 19.21875 0.8125 C 18.699219 0.585938 18.234375 0.390625 17.84375 0.25 C 17.453125 0.109375 17.273438 0 16.78125 0 Z M 18.15625 9 C 18.195313 9.003906 18.296875 9.011719 18.375 9.03125 C 18.535156 9.074219 18.769531 9.136719 19.03125 9.21875 C 19.558594 9.378906 20.238281 9.617188 20.90625 9.84375 C 21.574219 10.070313 22.230469 10.316406 22.71875 10.5 C 22.964844 10.59375 23.152344 10.664063 23.28125 10.71875 C 23.3125 10.734375 23.324219 10.742188 23.34375 10.75 C 23.382813 10.796875 23.402344 10.824219 23.46875 10.90625 C 23.632813 11.109375 23.859375 11.390625 24.125 11.71875 C 24.324219 11.96875 24.605469 12.332031 24.84375 12.625 C 24.367188 12.445313 23.914063 12.1875 23.4375 12.09375 C 22.445313 11.898438 21.257813 11.886719 20.21875 11.90625 C 19.179688 11.925781 18.160156 12 18.125 12 C 18.207031 12 17.382813 11.890625 16.84375 11.625 C 16.304688 11.359375 16 11.117188 16 10.5 C 16 9.519531 16.328125 9.382813 16.84375 9.1875 C 17.308594 9.011719 17.804688 9 18.15625 9 Z M 32.75 18.1875 L 33 18.4375 L 33 22.375 L 31.75 23 L 31 23 C 30.449219 23 30 23.449219 30 24 L 30 31.5625 L 29.5625 32 L 28.4375 32 L 28 31.5625 L 28 24 C 28 23.449219 27.550781 23 27 23 L 26.25 23 L 25 22.375 L 25 20.78125 C 25.527344 20.878906 25.976563 20.9375 26.28125 20.96875 C 26.820313 21.023438 27.316406 20.980469 27.78125 20.875 C 28.054688 21.253906 28.5 21.5 29 21.5 C 29.828125 21.5 30.5 20.828125 30.5 20 C 30.5 19.640625 30.367188 19.320313 30.15625 19.0625 C 30.203125 18.964844 30.277344 18.882813 30.3125 18.78125 C 30.351563 18.667969 30.285156 18.550781 30.3125 18.4375 C 30.90625 18.625 31.539063 18.714844 32.21875 18.46875 C 32.414063 18.398438 32.585938 18.296875 32.75 18.1875 Z M 38.34375 33.0625 C 37.003906 33.148438 35.839844 33.511719 34.71875 33.96875 C 32.476563 34.882813 30.199219 36.03125 25.375 36.03125 C 24.585938 36.03125 23.917969 36.105469 23.3125 36.21875 C 23.058594 36.117188 21.59375 35.503906 19.8125 34.84375 C 18.84375 34.484375 17.828125 34.121094 16.9375 33.84375 C 16.046875 33.566406 15.410156 33.34375 14.71875 33.34375 C 13.945313 33.34375 13.082031 33.550781 12.34375 34.0625 C 11.769531 34.460938 11.253906 35.109375 11.0625 35.90625 C 10.789063 35.839844 10.507813 35.78125 10.1875 35.78125 C 9.539063 35.78125 8.832031 36.003906 8.1875 36.5 C 7.542969 36.996094 7 37.867188 7 38.9375 C 7 39.78125 7.21875 40.578125 7.71875 41.15625 C 8.21875 41.734375 8.875 42.050781 9.625 42.375 C 10.328125 42.679688 14.753906 44.558594 19.25 46.375 C 21.5 47.285156 23.765625 48.175781 25.59375 48.84375 C 26.507813 49.179688 27.285156 49.457031 27.9375 49.65625 C 28.589844 49.855469 29.015625 50 29.5625 50 C 30.242188 50 30.800781 49.777344 31.6875 49.5 C 32.574219 49.222656 33.648438 48.851563 34.71875 48.46875 C 36.859375 47.699219 39.097656 46.878906 39.90625 46.625 C 42.945313 45.664063 45.21875 47.40625 45.21875 47.40625 C 45.660156 47.742188 46.289063 47.660156 46.625 47.21875 C 46.960938 46.777344 46.878906 46.148438 46.4375 45.8125 C 46.4375 45.8125 43.285156 43.453125 39.28125 44.71875 C 38.289063 45.03125 36.148438 45.832031 34.03125 46.59375 C 32.972656 46.972656 31.929688 47.332031 31.09375 47.59375 C 30.257813 47.855469 29.515625 48 29.5625 48 C 29.65625 48 29.125 47.933594 28.53125 47.75 C 27.9375 47.566406 27.175781 47.296875 26.28125 46.96875 C 24.492188 46.316406 22.238281 45.433594 20 44.53125 C 15.527344 42.722656 11.070313 40.816406 10.40625 40.53125 C 9.746094 40.246094 9.40625 40.023438 9.25 39.84375 C 9.09375 39.664063 9 39.488281 9 38.9375 C 9 38.472656 9.15625 38.285156 9.40625 38.09375 C 9.65625 37.902344 10.050781 37.78125 10.1875 37.78125 C 10.304688 37.78125 10.722656 37.882813 11.0625 37.96875 C 11.386719 38.050781 11.632813 38.117188 11.65625 38.125 C 11.65625 38.125 11.6875 38.125 11.6875 38.125 L 20.4375 41.125 C 20.796875 41.738281 21.351563 42.207031 21.96875 42.46875 C 23.007813 42.910156 24.203125 43 25.40625 43 L 31 43 C 33.703125 43 37.1875 41.90625 37.1875 41.90625 C 37.566406 41.839844 37.871094 41.5625 37.976563 41.191406 C 38.082031 40.820313 37.964844 40.425781 37.675781 40.171875 C 37.386719 39.917969 36.980469 39.851563 36.625 40 C 36.625 40 33.121094 41 31 41 L 25.40625 41 C 24.324219 41 23.324219 40.871094 22.75 40.625 C 22.175781 40.378906 22.03125 40.277344 22.03125 39.6875 C 22.03125 39.125 22.113281 38.871094 22.5 38.59375 C 22.6875 38.460938 22.984375 38.324219 23.4375 38.21875 C 23.449219 38.21875 23.457031 38.21875 23.46875 38.21875 C 23.941406 38.113281 24.578125 38.03125 25.375 38.03125 C 30.53125 38.03125 33.324219 36.6875 35.46875 35.8125 C 37.613281 34.9375 38.96875 34.472656 42.375 35.78125 C 44.707031 36.679688 48.625 38.3125 48.625 38.3125 C 48.960938 38.488281 49.371094 38.460938 49.679688 38.238281 C 49.988281 38.011719 50.140625 37.632813 50.078125 37.257813 C 50.011719 36.882813 49.742188 36.578125 49.375 36.46875 C 49.375 36.46875 45.492188 34.828125 43.09375 33.90625 C 41.203125 33.179688 39.683594 32.976563 38.34375 33.0625 Z M 14.71875 35.34375 C 14.769531 35.34375 15.511719 35.492188 16.34375 35.75 C 17.175781 36.007813 18.175781 36.367188 19.125 36.71875 C 20.042969 37.058594 20.214844 37.144531 20.875 37.40625 C 20.484375 37.84375 20.242188 38.367188 20.125 38.90625 L 13.03125 36.46875 C 13.070313 36.121094 13.210938 35.921875 13.5 35.71875 C 13.832031 35.488281 14.355469 35.34375 14.71875 35.34375 Z"/></svg>